<svg width="240" height="66" viewBox="0 0 240 66" fill="none" xmlns="http://www.w3.org/2000/svg">
<path d="M34.6353 7.5H45.6032C48.0469 7.5 50.0288 9.48191 50.0288 11.9256V22.8935C50.0288 24.2212 49.8595 25.5104 49.5439 26.7419H52.9459C55.5859 26.7419 57.7256 28.8816 57.7256 31.5215V44.0595C57.7259 47.3208 56.8052 50.5159 55.0696 53.2771C53.3341 56.0382 50.8541 58.2531 47.9151 59.6669C44.9762 61.0807 41.6978 61.6359 38.4572 61.2685C35.2167 60.9011 32.1457 59.6262 29.5978 57.5904L26.3767 60.8154C26.0154 61.1762 25.5256 61.3786 25.015 61.3783C24.5044 61.3779 24.0148 61.1747 23.654 60.8134C23.2932 60.4521 23.0907 59.9623 23.0911 59.4517C23.0914 58.9411 23.2946 58.4515 23.6559 58.0907L26.877 54.8696C25.5132 53.1669 24.4842 51.2212 23.8445 49.1355C21.5388 49.858 19.0954 50.0275 16.7121 49.6305C14.3287 49.2334 12.0723 48.2808 10.1254 46.8498C8.17844 45.4189 6.59571 43.5497 5.50524 41.3936C4.41476 39.2374 3.84716 36.8548 3.84836 34.4386V23.463C3.8504 22.2906 4.31757 21.1669 5.14731 20.3386C5.97706 19.5103 7.10157 19.0451 8.27399 19.0451H19.2419C19.4035 19.0451 19.5651 19.0451 19.7267 19.0528C20.5798 15.7471 22.5071 12.8185 25.2057 10.7273C27.9044 8.63614 31.2213 7.50089 34.6353 7.5ZM41.7702 45.4219L32.3417 54.8504C34.3439 56.3476 36.7234 57.258 39.2136 57.4797C41.7039 57.7013 44.2067 57.2255 46.4419 56.1055C48.6771 54.9856 50.5565 53.2655 51.8696 51.1381C53.1828 49.0106 53.8779 46.5596 53.8772 44.0595V31.5177C53.8762 31.2714 53.7776 31.0355 53.6031 30.8616C53.4285 30.6878 53.1922 30.5902 52.9459 30.5902H40.4079C37.9081 30.5902 35.4577 31.2859 33.3308 32.5993C31.2038 33.9128 29.4844 35.7922 28.3649 38.0273C27.2453 40.2623 26.7699 42.7649 26.9917 45.2548C27.2135 47.7447 28.1239 50.1238 29.6209 52.1257L39.0494 42.6972C39.4107 42.3364 39.9006 42.1339 40.4112 42.1343C40.9218 42.1346 41.4114 42.3378 41.7722 42.6991C42.133 43.0604 42.3354 43.5503 42.3351 44.0609C42.3347 44.5715 42.1315 45.0611 41.7702 45.4219ZM45.5224 26.7419C45.9457 25.5373 46.1805 24.2404 46.1805 22.8935V11.9256C46.1805 11.7725 46.1196 11.6257 46.0114 11.5174C45.9031 11.4092 45.7563 11.3484 45.6032 11.3484H34.6353C32.138 11.3488 29.708 12.1586 27.7098 13.6566C25.7115 15.1546 24.2527 17.26 23.552 19.657C25.7103 20.2886 27.7045 21.3843 29.3949 22.8674C31.0854 24.3504 32.4313 26.185 33.3384 28.2427C35.5626 27.2491 37.9719 26.7376 40.4079 26.7419H45.5224ZM29.9942 30.2208C29.1458 28.0604 27.6661 26.2058 25.7481 24.8988C23.8301 23.5918 21.5628 22.893 19.2419 22.8935H8.27399C8.12089 22.8935 7.97406 22.9543 7.86581 23.0626C7.75755 23.1708 7.69673 23.3176 7.69673 23.4707V34.4386C7.69621 36.29 8.14096 38.1144 8.99345 39.7579C9.84594 41.4013 11.0812 42.8157 12.595 43.8816C14.1088 44.9475 15.8567 45.6337 17.6913 45.8824C19.526 46.131 21.3935 45.9348 23.1364 45.3103C23.0388 43.9506 23.0995 42.5843 23.3173 41.2387L15.9553 33.8767C15.7764 33.6978 15.6345 33.4855 15.5377 33.2517C15.4409 33.018 15.391 32.7674 15.391 32.5144C15.391 32.2614 15.4409 32.0109 15.5377 31.7771C15.6345 31.5434 15.7764 31.331 15.9553 31.1521C16.1342 30.9732 16.3466 30.8313 16.5804 30.7345C16.8141 30.6376 17.0647 30.5878 17.3177 30.5878C17.5707 30.5878 17.8212 30.6376 18.055 30.7345C18.2887 30.8313 18.5011 30.9732 18.68 31.1521L24.568 37.044C25.769 34.3463 27.6362 31.9983 29.9942 30.2208Z" fill="white"/>
<path d="M86.0657 62.4074C79.2817 62.4074 74.547 60.3227 71.8617 56.1534L72.0737 55.5174C75.2537 56.9307 78.5044 57.6374 81.8257 57.6374C85.359 57.6374 88.7864 56.966 92.1077 55.6234C95.5704 54.2807 97.3017 52.6907 97.3017 50.8534C97.3017 49.7934 95.7824 47.638 92.7437 44.3874C90.341 41.7727 88.0797 39.3347 85.9597 37.0734C83.9104 34.812 82.497 33.0807 81.7197 31.8794C80.3064 29.618 79.5997 27.0034 79.5997 24.0354C79.5997 20.0074 81.4724 16.5447 85.2177 13.6474C89.0337 10.75 94.4044 8.41804 101.33 6.65138C104.51 5.87404 107.054 5.30871 108.962 4.95538C110.94 4.53138 112.177 4.31938 112.672 4.31938C113.661 4.31938 114.509 4.42538 115.216 4.63737L117.866 7.39338C119.138 8.80671 119.774 9.86671 119.774 10.5734C119.774 12.0574 117.866 13.824 114.05 15.8734C110.375 17.852 108.078 18.8414 107.16 18.8414L107.054 18.3114L112.46 14.6014C113.873 13.612 114.862 12.7994 115.428 12.1634C115.993 11.5274 116.276 10.962 116.276 10.4674C116.276 9.83138 115.392 9.51338 113.626 9.51338C109.244 9.51338 104.686 10.2907 99.9517 11.8454C95.0757 13.3294 90.871 15.414 87.3377 18.0994C83.875 20.714 82.1437 23.3994 82.1437 26.1554C82.1437 28.6994 85.2177 33.222 91.3657 39.7234C97.5137 46.154 100.588 50.9947 100.588 54.2454C100.588 56.5774 99.4217 58.5207 97.0897 60.0754C94.7577 61.63 91.9664 62.4074 88.7157 62.4074H86.0657Z" fill="white"/>
<path d="M110.166 60.4994C108.752 60.4994 107.445 59.8634 106.244 58.5914C105.113 57.2487 104.548 55.5527 104.548 53.5034C104.548 51.454 105.784 48.274 108.258 43.9634C110.731 39.7234 113.77 35.9074 117.374 32.5154C120.907 29.194 123.946 27.5334 126.49 27.5334H127.55C130.164 27.5334 132.39 28.0634 134.228 29.1234C136.065 30.1127 136.984 31.4554 136.984 33.1514C136.984 33.9287 136.666 34.3174 136.03 34.3174C135.818 34.3174 135.712 34.2114 135.712 33.9994C134.581 31.3847 132.85 30.0774 130.518 30.0774C126.49 30.0774 121.896 33.3987 116.738 40.0414C111.579 46.5427 109 51.56 109 55.0934C109 56.436 109.353 57.1074 110.06 57.1074C113.24 57.1074 119.918 49.9347 130.094 35.5894C130.023 35.66 130.058 35.66 130.2 35.5894C130.412 35.448 130.588 35.3774 130.73 35.3774C131.083 35.3774 131.825 35.7307 132.956 36.4374C134.086 37.0734 134.652 37.6387 134.652 38.1334C134.652 38.1334 134.51 38.3807 134.228 38.8754C133.945 39.2994 133.592 39.9707 133.168 40.8894C132.037 43.292 131.154 45.6594 130.518 47.9914C129.952 50.2527 129.67 52.2314 129.67 53.9274C129.67 57.6727 130.588 59.5454 132.426 59.5454L133.486 59.3334L133.698 59.4394C133.698 60.0754 132.814 60.3934 131.048 60.3934C129.352 60.3934 127.938 59.616 126.808 58.0614C125.748 56.436 125.218 54.2807 125.218 51.5954C125.218 48.9807 125.677 46.0834 126.596 42.9034C126.525 43.1154 126.278 43.504 125.854 44.0694C125.43 44.6347 124.758 45.624 123.84 47.0374C118.045 56.012 113.487 60.4994 110.166 60.4994Z" fill="white"/>
<path d="M145.901 60.6054C142.509 60.6054 140.813 57.7787 140.813 52.1254C140.813 48.5214 141.944 42.5854 144.205 34.3174C146.466 25.9787 149.328 18.3114 152.791 11.3154C156.324 4.17804 159.434 0.609375 162.119 0.609375C163.674 0.609375 165.228 1.13937 166.783 2.19937C168.338 3.18871 169.115 4.28404 169.115 5.48538C169.115 10.5734 161.624 21.88 146.643 39.4054C146.078 42.02 145.618 44.458 145.265 46.7194C144.982 48.9807 144.841 51.1007 144.841 53.0794C144.841 56.966 145.689 58.9094 147.385 58.9094L149.081 58.3794C149.434 58.3794 149.611 58.556 149.611 58.9094C149.611 60.04 148.374 60.6054 145.901 60.6054ZM147.385 36.6494C160.176 19.972 166.571 9.47805 166.571 5.16738C166.571 4.31938 166.324 3.89538 165.829 3.89538C163.709 3.89538 160.635 7.67604 156.607 15.2374C152.579 22.7987 149.505 29.936 147.385 36.6494Z" fill="white"/>
<path d="M164.675 59.6514C158.951 59.6514 156.089 56.648 156.089 50.6414C156.089 48.2387 156.619 45.6947 157.679 43.0094C158.809 40.2534 160.187 38.0274 161.813 36.3314C161.035 34.9887 160.647 33.328 160.647 31.3494C160.647 29.3 161.495 27.4627 163.191 25.8374C164.887 24.1414 166.971 23.2934 169.445 23.2934C174.038 23.2934 177.147 25.696 178.773 30.5014C182.094 31.1374 183.755 31.9147 183.755 32.8334C183.755 33.8934 183.401 34.4234 182.695 34.4234L180.045 33.9994C180.115 34.706 180.151 35.342 180.151 35.9074C180.221 36.4727 180.257 36.9674 180.257 37.3914C180.257 43.186 178.773 48.38 175.805 52.9734C172.837 57.4254 169.127 59.6514 164.675 59.6514ZM163.297 35.3774C168.102 31.7734 171.423 29.9714 173.261 29.9714H173.579C172.589 27.498 170.752 26.2614 168.067 26.2614C166.865 26.2614 165.876 26.6854 165.099 27.5334C164.321 28.3107 163.756 29.2647 163.403 30.3954C163.049 31.526 162.873 32.5507 162.873 33.4694C162.873 34.3174 163.014 34.9534 163.297 35.3774ZM164.569 58.3794C167.466 58.3794 170.187 56.118 172.731 51.5954C175.275 47.002 176.547 42.6207 176.547 38.4514C176.547 36.614 176.229 35.13 175.593 33.9994C172.978 34.4234 170.116 36.084 167.007 38.9814C167.713 39.476 168.279 39.7234 168.703 39.7234C169.127 39.6527 169.374 39.6174 169.445 39.6174C169.798 39.6174 169.975 39.794 169.975 40.1474C169.975 40.7127 169.515 40.9954 168.597 40.9954C167.819 40.9954 166.936 40.748 165.947 40.2534C162.201 44.6347 160.329 48.7687 160.329 52.6554C160.329 56.4714 161.742 58.3794 164.569 58.3794Z" fill="white"/>
<path d="M185.498 59.8634C184.791 59.8634 184.12 59.6867 183.484 59.3334C182.848 58.9094 182.495 58.4854 182.424 58.0614C182.424 56.86 183.59 52.62 185.922 45.3414C188.254 37.992 189.42 32.48 189.42 28.8054C189.42 27.7454 189.173 27.1447 188.678 27.0034C188.183 26.7914 187.688 26.7207 187.194 26.7914C186.699 26.7914 186.452 26.6147 186.452 26.2614C186.452 25.6254 186.982 25.3074 188.042 25.3074C192.777 25.3074 195.144 27.2507 195.144 31.1374C195.144 32.5507 193.448 38.31 190.056 48.4154C191.611 45.942 193.13 43.6807 194.614 41.6314C196.169 39.5114 197.653 37.568 199.066 35.8014C201.963 32.268 203.907 30.5014 204.896 30.5014C204.896 30.5014 204.896 30.5367 204.896 30.6074C204.967 30.6074 205.002 30.6427 205.002 30.7134C205.002 30.784 204.931 30.9607 204.79 31.2434C204.719 31.4554 204.507 31.7734 204.154 32.1974C196.522 41.384 191.222 49.2987 188.254 55.9414L187.3 58.6974C187.017 59.4747 186.417 59.8634 185.498 59.8634ZM207.44 61.0294C205.391 61.0294 203.765 60.0754 202.564 58.1674C201.433 56.4007 200.868 53.7507 200.868 50.2174C200.868 46.8254 201.787 42.2674 203.624 36.5434C205.461 30.8194 207.228 27.9574 208.924 27.9574H209.454C211.786 27.9574 213.022 28.4167 213.164 29.3354C213.022 29.194 212.846 29.406 212.634 29.9714C211.645 31.738 210.691 33.7167 209.772 35.9074C208.924 38.098 208.111 40.4654 207.334 43.0094C205.779 47.956 205.002 51.2774 205.002 52.9734C205.002 57.284 205.779 59.4394 207.334 59.4394C207.758 59.4394 208.358 59.1214 209.136 58.4854C209.984 57.8494 210.373 57.496 210.302 57.4254C210.514 57.4254 210.62 57.708 210.62 58.2734C210.62 60.1107 209.56 61.0294 207.44 61.0294Z" fill="white"/>
<path d="M221.187 60.8174C215.18 60.8174 212.177 58.026 212.177 52.4434C212.177 48.1327 214.297 42.9034 218.537 36.7554C222.918 30.6074 227.087 27.5334 231.045 27.5334C232.741 27.5334 234.225 28.0987 235.497 29.2294C236.839 30.2894 237.511 31.5967 237.511 33.1514C237.511 35.766 235.85 38.416 232.529 41.1014C229.278 43.716 226.063 45.0234 222.883 45.0234C222.247 45.0234 221.929 44.882 221.929 44.5994L222.247 44.0694C230.373 41.5254 234.437 37.356 234.437 31.5614C234.437 30.7134 234.154 30.2894 233.589 30.2894C232.811 30.2894 231.398 31.102 229.349 32.7274C227.582 34.1407 225.921 35.766 224.367 37.6034C222.883 39.4407 221.54 41.3487 220.339 43.3274C217.795 47.638 216.523 51.242 216.523 54.1394C216.523 56.966 217.618 58.3794 219.809 58.3794C222.353 58.3794 225.144 57.072 228.183 54.4574C229.172 53.5387 230.232 52.514 231.363 51.3834C232.493 50.182 233.73 48.8747 235.073 47.4614C237.687 44.6347 239.065 43.2214 239.207 43.2214C239.631 43.2214 239.843 43.398 239.843 43.7514C239.843 44.034 239.772 44.3167 239.631 44.5994C232.211 55.4114 226.063 60.8174 221.187 60.8174Z" fill="white"/>
</svg>
