<svg width="171" height="64" viewBox="0 0 171 64" fill="none" xmlns="http://www.w3.org/2000/svg">
<path d="M24.1875 5.6875H31.8469C33.5534 5.6875 34.9375 7.07156 34.9375 8.77813V16.4375C34.9375 17.3647 34.8193 18.265 34.5989 19.125H36.9746C38.8183 19.125 40.3125 20.6193 40.3125 22.4629V31.2188C40.3127 33.4963 39.6698 35.7276 38.4577 37.6558C37.2457 39.584 35.5138 41.1308 33.4614 42.1181C31.409 43.1054 29.1195 43.4931 26.8565 43.2366C24.5935 42.98 22.4489 42.0897 20.6696 40.668L18.4201 42.9201C18.1678 43.1721 17.8257 43.3135 17.4691 43.3132C17.1126 43.313 16.7707 43.1711 16.5187 42.9188C16.2668 42.6665 16.1253 42.3244 16.1256 41.9678C16.1258 41.6112 16.2677 41.2693 16.5201 41.0174L18.7695 38.7679C17.8171 37.5788 17.0985 36.2201 16.6518 34.7636C15.0416 35.2681 13.3353 35.3865 11.6708 35.1092C10.0064 34.8319 8.43065 34.1667 7.07102 33.1674C5.7114 32.168 4.60611 30.8627 3.84458 29.357C3.08304 27.8512 2.68666 26.1874 2.6875 24.5V16.8352C2.68893 16.0165 3.01517 15.2318 3.59462 14.6533C4.17407 14.0749 4.95937 13.75 5.77813 13.75H13.4375C13.5504 13.75 13.6633 13.75 13.7761 13.7554C14.3719 11.4468 15.7178 9.40166 17.6024 7.94129C19.4869 6.48092 21.8033 5.68812 24.1875 5.6875ZM29.1701 32.1701L22.5858 38.7545C23.984 39.8001 25.6457 40.4358 27.3847 40.5907C29.1238 40.7455 30.8716 40.4132 32.4326 39.631C33.9935 38.8489 35.306 37.6477 36.223 36.162C37.1401 34.6763 37.6255 32.9647 37.625 31.2188V22.4602C37.6243 22.2882 37.5555 22.1234 37.4336 22.002C37.3117 21.8807 37.1467 21.8125 36.9746 21.8125H28.2188C26.473 21.8125 24.7618 22.2983 23.2764 23.2155C21.7911 24.1328 20.5904 25.4453 19.8085 27.0061C19.0267 28.567 18.6947 30.3146 18.8496 32.0534C19.0045 33.7923 19.6403 35.4537 20.6857 36.8517L27.2701 30.2674C27.5224 30.0154 27.8645 29.874 28.221 29.8743C28.5776 29.8745 28.9195 30.0164 29.1715 30.2687C29.4234 30.521 29.5648 30.8631 29.5646 31.2197C29.5643 31.5763 29.4224 31.9182 29.1701 32.1701ZM31.7904 19.125C32.0861 18.2838 32.25 17.3781 32.25 16.4375V8.77813C32.25 8.67121 32.2075 8.56867 32.1319 8.49307C32.0563 8.41747 31.9538 8.375 31.8469 8.375H24.1875C22.4435 8.37527 20.7465 8.94085 19.3511 9.98696C17.9556 11.0331 16.9368 12.5033 16.4475 14.1773C17.9547 14.6184 19.3474 15.3836 20.5279 16.4192C21.7084 17.4549 22.6483 18.7361 23.2818 20.1731C24.835 19.4792 26.5176 19.122 28.2188 19.125H31.7904ZM20.9464 21.5545C20.3539 20.0458 19.3206 18.7507 17.9811 17.8379C16.6417 16.9251 15.0584 16.4371 13.4375 16.4375H5.77813C5.67121 16.4375 5.56867 16.48 5.49307 16.5556C5.41747 16.6312 5.375 16.7337 5.375 16.8406V24.5C5.37464 25.7929 5.68522 27.067 6.28056 28.2147C6.8759 29.3624 7.73852 30.3501 8.79567 31.0945C9.85282 31.8389 11.0735 32.3181 12.3547 32.4917C13.6359 32.6654 14.9401 32.5283 16.1573 32.0922C16.0891 31.1427 16.1315 30.1885 16.2836 29.2488L11.1424 24.1076C11.0174 23.9827 10.9183 23.8344 10.8507 23.6711C10.7831 23.5079 10.7483 23.3329 10.7483 23.1562C10.7483 22.9796 10.7831 22.8046 10.8507 22.6414C10.9183 22.4781 11.0174 22.3298 11.1424 22.2049C11.2673 22.0799 11.4156 21.9808 11.5789 21.9132C11.7421 21.8456 11.9171 21.8108 12.0938 21.8108C12.2704 21.8108 12.4454 21.8456 12.6086 21.9132C12.7719 21.9808 12.9202 22.0799 13.0451 22.2049L17.157 26.3194C17.9957 24.4355 19.2997 22.7958 20.9464 21.5545Z" fill="black"/>
<path d="M60.4 44.976C55.536 44.976 52.1413 43.4813 50.216 40.492L50.368 40.036C52.648 41.0493 54.9787 41.556 57.36 41.556C59.8933 41.556 62.3507 41.0747 64.732 40.112C67.2147 39.1493 68.456 38.0093 68.456 36.692C68.456 35.932 67.3667 34.3867 65.188 32.056C63.4653 30.1813 61.844 28.4333 60.324 26.812C58.8547 25.1907 57.8413 23.9493 57.284 23.088C56.2707 21.4667 55.764 19.592 55.764 17.464C55.764 14.576 57.1067 12.0933 59.792 10.016C62.528 7.93867 66.3787 6.26667 71.344 5C73.624 4.44266 75.448 4.03733 76.816 3.784C78.2347 3.48 79.1213 3.328 79.476 3.328C80.1853 3.328 80.7933 3.404 81.3 3.556L83.2 5.532C84.112 6.54533 84.568 7.30533 84.568 7.812C84.568 8.876 83.2 10.1427 80.464 11.612C77.8293 13.0307 76.1827 13.74 75.524 13.74L75.448 13.36L79.324 10.7C80.3373 9.99067 81.0467 9.408 81.452 8.952C81.8573 8.496 82.06 8.09067 82.06 7.736C82.06 7.28 81.4267 7.052 80.16 7.052C77.0187 7.052 73.7507 7.60933 70.356 8.724C66.86 9.788 63.8453 11.2827 61.312 13.208C58.8293 15.0827 57.588 17.008 57.588 18.984C57.588 20.808 59.792 24.0507 64.2 28.712C68.608 33.3227 70.812 36.7933 70.812 39.124C70.812 40.796 69.976 42.1893 68.304 43.304C66.632 44.4187 64.6307 44.976 62.3 44.976H60.4ZM77.6793 43.608C76.666 43.608 75.7286 43.152 74.8673 42.24C74.0566 41.2773 73.6513 40.0613 73.6513 38.592C73.6513 37.1227 74.538 34.8427 76.3113 31.752C78.0846 28.712 80.2633 25.976 82.8473 23.544C85.3806 21.1627 87.5593 19.972 89.3833 19.972H90.1433C92.018 19.972 93.614 20.352 94.9313 21.112C96.2486 21.8213 96.9073 22.784 96.9073 24C96.9073 24.5573 96.6793 24.836 96.2233 24.836C96.0713 24.836 95.9953 24.76 95.9953 24.608C95.1846 22.7333 93.9433 21.796 92.2713 21.796C89.3833 21.796 86.09 24.1773 82.3913 28.94C78.6926 33.6013 76.8433 37.1987 76.8433 39.732C76.8433 40.6947 77.0966 41.176 77.6033 41.176C79.8833 41.176 84.6713 36.0333 91.9673 25.748C91.9166 25.7987 91.942 25.7987 92.0433 25.748C92.1953 25.6467 92.322 25.596 92.4233 25.596C92.6766 25.596 93.2086 25.8493 94.0193 26.356C94.83 26.812 95.2353 27.2173 95.2353 27.572C95.2353 27.572 95.134 27.7493 94.9313 28.104C94.7286 28.408 94.4753 28.8893 94.1713 29.548C93.3606 31.2707 92.7273 32.968 92.2713 34.64C91.866 36.2613 91.6633 37.68 91.6633 38.896C91.6633 41.5813 92.322 42.924 93.6393 42.924L94.3993 42.772L94.5513 42.848C94.5513 43.304 93.918 43.532 92.6513 43.532C91.4353 43.532 90.422 42.9747 89.6113 41.86C88.8513 40.6947 88.4713 39.1493 88.4713 37.224C88.4713 35.3493 88.8006 33.272 89.4593 30.992C89.4086 31.144 89.2313 31.4227 88.9273 31.828C88.6233 32.2333 88.142 32.9427 87.4833 33.956C83.3286 40.3907 80.0606 43.608 77.6793 43.608ZM103.301 43.684C100.869 43.684 99.6528 41.6573 99.6528 37.604C99.6528 35.02 100.463 30.764 102.085 24.836C103.706 18.8573 105.758 13.36 108.241 8.344C110.774 3.22666 113.003 0.667997 114.929 0.667997C116.043 0.667997 117.158 1.048 118.273 1.808C119.387 2.51733 119.945 3.30267 119.945 4.164C119.945 7.812 114.574 15.9187 103.833 28.484C103.427 30.3587 103.098 32.1067 102.845 33.728C102.642 35.3493 102.541 36.8693 102.541 38.288C102.541 41.0747 103.149 42.468 104.365 42.468L105.581 42.088C105.834 42.088 105.961 42.2147 105.961 42.468C105.961 43.2787 105.074 43.684 103.301 43.684ZM104.365 26.508C113.535 14.5507 118.121 7.02667 118.121 3.936C118.121 3.328 117.943 3.024 117.589 3.024C116.069 3.024 113.865 5.73466 110.977 11.156C108.089 16.5773 105.885 21.6947 104.365 26.508ZM116.761 43C112.657 43 110.605 40.8467 110.605 36.54C110.605 34.8173 110.985 32.9933 111.745 31.068C112.556 29.092 113.544 27.496 114.709 26.28C114.152 25.3173 113.873 24.1267 113.873 22.708C113.873 21.2387 114.481 19.9213 115.697 18.756C116.913 17.54 118.408 16.932 120.181 16.932C123.474 16.932 125.704 18.6547 126.869 22.1C129.25 22.556 130.441 23.1133 130.441 23.772C130.441 24.532 130.188 24.912 129.681 24.912L127.781 24.608C127.832 25.1147 127.857 25.5707 127.857 25.976C127.908 26.3813 127.933 26.736 127.933 27.04C127.933 31.1947 126.869 34.9187 124.741 38.212C122.613 41.404 119.953 43 116.761 43ZM115.773 25.596C119.218 23.012 121.6 21.72 122.917 21.72H123.145C122.436 19.9467 121.118 19.06 119.193 19.06C118.332 19.06 117.622 19.364 117.065 19.972C116.508 20.5293 116.102 21.2133 115.849 22.024C115.596 22.8347 115.469 23.5693 115.469 24.228C115.469 24.836 115.57 25.292 115.773 25.596ZM116.685 42.088C118.762 42.088 120.713 40.4667 122.537 37.224C124.361 33.9307 125.273 30.7893 125.273 27.8C125.273 26.4827 125.045 25.4187 124.589 24.608C122.714 24.912 120.662 26.1027 118.433 28.18C118.94 28.5347 119.345 28.712 119.649 28.712C119.953 28.6613 120.13 28.636 120.181 28.636C120.434 28.636 120.561 28.7627 120.561 29.016C120.561 29.4213 120.232 29.624 119.573 29.624C119.016 29.624 118.382 29.4467 117.673 29.092C114.988 32.2333 113.645 35.1973 113.645 37.984C113.645 40.72 114.658 42.088 116.685 42.088ZM131.691 43.152C131.184 43.152 130.703 43.0253 130.247 42.772C129.791 42.468 129.538 42.164 129.487 41.86C129.487 40.9987 130.323 37.9587 131.995 32.74C133.667 27.4707 134.503 23.5187 134.503 20.884C134.503 20.124 134.326 19.6933 133.971 19.592C133.616 19.44 133.262 19.3893 132.907 19.44C132.552 19.44 132.375 19.3133 132.375 19.06C132.375 18.604 132.755 18.376 133.515 18.376C136.91 18.376 138.607 19.7693 138.607 22.556C138.607 23.5693 137.391 27.6987 134.959 34.944C136.074 33.1707 137.163 31.5493 138.227 30.08C139.342 28.56 140.406 27.1667 141.419 25.9C143.496 23.3667 144.89 22.1 145.599 22.1C145.599 22.1 145.599 22.1253 145.599 22.176C145.65 22.176 145.675 22.2013 145.675 22.252C145.675 22.3027 145.624 22.4293 145.523 22.632C145.472 22.784 145.32 23.012 145.067 23.316C139.595 29.9027 135.795 35.5773 133.667 40.34L132.983 42.316C132.78 42.8733 132.35 43.152 131.691 43.152ZM147.423 43.988C145.954 43.988 144.788 43.304 143.927 41.936C143.116 40.6693 142.711 38.7693 142.711 36.236C142.711 33.804 143.37 30.536 144.687 26.432C146.004 22.328 147.271 20.276 148.487 20.276H148.867C150.539 20.276 151.426 20.6053 151.527 21.264C151.426 21.1627 151.299 21.3147 151.147 21.72C150.438 22.9867 149.754 24.4053 149.095 25.976C148.487 27.5467 147.904 29.244 147.347 31.068C146.232 34.6147 145.675 36.996 145.675 38.212C145.675 41.3027 146.232 42.848 147.347 42.848C147.651 42.848 148.082 42.62 148.639 42.164C149.247 41.708 149.526 41.4547 149.475 41.404C149.627 41.404 149.703 41.6067 149.703 42.012C149.703 43.3293 148.943 43.988 147.423 43.988ZM157.279 43.836C152.973 43.836 150.819 41.8347 150.819 37.832C150.819 34.7413 152.339 30.992 155.379 26.584C158.521 22.176 161.51 19.972 164.347 19.972C165.563 19.972 166.627 20.3773 167.539 21.188C168.502 21.948 168.983 22.8853 168.983 24C168.983 25.8747 167.793 27.7747 165.411 29.7C163.081 31.5747 160.775 32.512 158.495 32.512C158.039 32.512 157.811 32.4107 157.811 32.208L158.039 31.828C163.866 30.004 166.779 27.0147 166.779 22.86C166.779 22.252 166.577 21.948 166.171 21.948C165.614 21.948 164.601 22.5307 163.131 23.696C161.865 24.7093 160.674 25.8747 159.559 27.192C158.495 28.5093 157.533 29.8773 156.671 31.296C154.847 34.3867 153.935 36.9707 153.935 39.048C153.935 41.0747 154.721 42.088 156.291 42.088C158.115 42.088 160.117 41.1507 162.295 39.276C163.005 38.6173 163.765 37.8827 164.575 37.072C165.386 36.2107 166.273 35.2733 167.235 34.26C169.11 32.2333 170.098 31.22 170.199 31.22C170.503 31.22 170.655 31.3467 170.655 31.6C170.655 31.8027 170.605 32.0053 170.503 32.208C165.183 39.96 160.775 43.836 157.279 43.836Z" fill="black"/>
</svg>
